<svg width="376.8" height="89.04" viewBox="0 0 376.8 89.04" xmlns="http://www.w3.org/2000/svg">
<g id="svgGroup" stroke-linecap="round" fill-rule="evenodd" font-size="9pt" stroke="#000" stroke-width="0.25mm"
fill="purple" style="stroke:#000;stroke-width:0.25mm;fill:purple">
<path d="M 102.08 35.12 A 3.037 3.037 0 0 0 101.18 35.332 Q 100.374 35.643 99.398 36.403 A 13.653 13.653 0 0 0 98.96 36.76 Q 97.12 38.32 95 40.76 Q 92.88 43.2 90.6 46.16 Q 88.32 49.12 86.2 52.04 Q 84.08 54.96 82.24 57.52 Q 80.594 59.81 79.396 61.268 A 35.79 35.79 0 0 1 79.12 61.6 Q 77.36 60.88 76.08 59.48 A 7.783 7.783 0 0 1 74.612 57.116 A 9.75 9.75 0 0 1 74.24 56 A 49.567 49.567 0 0 1 75 52.25 A 57.563 57.563 0 0 1 75.36 50.84 A 46.325 46.325 0 0 1 76.558 47.06 A 54.848 54.848 0 0 1 77.24 45.28 A 53.118 53.118 0 0 1 78.815 41.761 A 66.239 66.239 0 0 1 80.12 39.24 Q 81.84 36.08 84.32 32.56 A 2.778 2.778 0 0 0 83.575 32.728 Q 82.535 33.101 81.04 34.28 Q 78.96 35.92 76.56 38.52 Q 74.16 41.12 71.6 44.36 Q 69.04 47.6 66.8 50.72 Q 64.534 53.905 62.854 56.48 A 105.496 105.496 0 0 0 61.88 58 Q 59.92 61.12 59.04 61.68 A 11.536 11.536 0 0 1 57.66 60.506 Q 56.66 59.5 56.16 58.4 Q 55.36 56.64 54.96 54.48 A 24.03 24.03 0 0 1 55.074 52.976 Q 55.151 52.251 55.272 51.427 A 54.89 54.89 0 0 1 55.56 49.68 Q 56.08 46.8 57.04 43.76 A 76.457 76.457 0 0 1 61.789 32.183 A 84.862 84.862 0 0 1 61.8 32.16 Q 64.72 26.4 67.44 21.6 A 14.471 14.471 0 0 1 70.282 22.511 A 12.611 12.611 0 0 1 71.48 23.12 A 14.489 14.489 0 0 1 73.064 24.191 Q 73.803 24.761 74.573 25.478 A 27.534 27.534 0 0 1 75.28 26.16 Q 74.505 28.563 72.904 31.228 A 34.084 34.084 0 0 1 72.8 31.4 Q 71.12 34.16 69.28 37.2 Q 67.44 40.24 65.92 43.44 A 23.068 23.068 0 0 0 64.095 48.897 A 21.249 21.249 0 0 0 63.92 49.92 Q 66.16 46.72 69.24 42.56 A 119.258 119.258 0 0 1 75.459 34.835 A 110.282 110.282 0 0 1 75.56 34.72 A 58.746 58.746 0 0 1 78.991 31.126 A 44.85 44.85 0 0 1 82 28.48 Q 85.149 25.96 87.679 25.921 A 5.152 5.152 0 0 1 87.76 25.92 A 6.666 6.666 0 0 1 88.858 26.016 A 8.946 8.946 0 0 1 89.84 26.24 A 12.357 12.357 0 0 1 91.492 26.838 A 10.978 10.978 0 0 1 91.92 27.04 Q 92.655 27.408 93.202 27.752 A 9.237 9.237 0 0 1 93.52 27.96 A 6.374 6.374 0 0 1 93.74 28.118 Q 94.097 28.386 94.205 28.565 A 0.379 0.379 0 0 1 94.24 28.64 A 10.134 10.134 0 0 1 93.907 29.692 Q 93.495 30.806 92.728 32.3 A 44.09 44.09 0 0 1 92.36 33 Q 90.88 35.76 89.2 38.8 Q 87.52 41.84 86.08 44.68 A 29.918 29.918 0 0 0 85.365 46.186 Q 84.573 47.993 84.4 49.2 Q 88.32 43.84 91.76 39.48 A 117.182 117.182 0 0 1 94.693 35.902 Q 96.186 34.158 97.594 32.672 A 68.38 68.38 0 0 1 98.24 32 Q 100.568 29.611 102.637 28.067 A 22.476 22.476 0 0 1 103.88 27.2 A 12.502 12.502 0 0 1 105.713 26.209 Q 107.314 25.52 108.8 25.52 Q 110.4 25.52 111.8 26.36 Q 113.2 27.2 113.76 28.8 A 26.655 26.655 0 0 1 113.107 30.692 Q 112.731 31.672 112.238 32.773 A 59.661 59.661 0 0 1 111.4 34.56 Q 109.76 37.92 108.08 41.64 Q 106.4 45.36 105.08 48.96 A 24.758 24.758 0 0 0 104.225 51.766 Q 103.76 53.73 103.76 55.44 A 9.296 9.296 0 0 0 103.783 56.119 Q 103.862 57.192 104.213 57.609 A 0.908 0.908 0 0 0 104.24 57.64 A 1.56 1.56 0 0 0 105.042 58.099 Q 105.297 58.16 105.598 58.16 A 1.744 1.744 0 0 0 105.6 58.16 Q 106.56 58.16 107.4 57.8 Q 108.023 57.533 108.405 57.464 A 1.34 1.34 0 0 1 108.64 57.44 Q 109.12 57.76 109.2 58.24 Q 109.28 58.72 109.28 59.12 Q 107.68 60.4 106 61.24 A 8.015 8.015 0 0 1 103.068 62.045 A 9.738 9.738 0 0 1 102.24 62.08 A 9.478 9.478 0 0 1 100.922 61.994 Q 100.236 61.897 99.665 61.693 A 4.797 4.797 0 0 1 99.08 61.44 Q 97.84 60.8 97.04 59.68 A 6.864 6.864 0 0 1 95.984 57.387 A 7.934 7.934 0 0 1 95.92 57.12 A 13.439 13.439 0 0 1 95.638 55.127 A 16.402 16.402 0 0 1 95.6 54 Q 95.6 51.28 96.32 48.6 Q 97.04 45.92 98.04 43.48 A 53.826 53.826 0 0 1 99.59 40.034 A 46.666 46.666 0 0 1 100.16 38.92 A 127.624 127.624 0 0 0 101.079 37.149 Q 101.492 36.336 101.849 35.601 A 73.719 73.719 0 0 0 102.08 35.12 Z M 52.16 5.76 A 108.636 108.636 0 0 0 52.269 6.369 Q 52.392 7.041 52.474 7.429 A 11.707 11.707 0 0 0 52.52 7.64 A 3.788 3.788 0 0 1 52.583 8 Q 52.636 8.406 52.64 8.96 A 12.554 12.554 0 0 1 52.64 9.04 Q 52.64 11.68 51.48 13.96 A 8.073 8.073 0 0 1 50.304 15.702 A 6.323 6.323 0 0 1 48.32 17.2 Q 46.72 15.04 44.4 13.48 Q 42.08 11.92 39.32 10.92 Q 36.56 9.92 33.6 9.44 A 36.455 36.455 0 0 0 28.587 8.968 A 33.047 33.047 0 0 0 27.84 8.96 Q 25.04 8.96 22.6 9.4 Q 20.16 9.84 18.28 10.6 A 10.832 10.832 0 0 0 16.885 11.277 Q 16.163 11.697 15.614 12.195 A 6.095 6.095 0 0 0 15.32 12.48 A 3.983 3.983 0 0 0 14.554 13.58 A 3.455 3.455 0 0 0 14.24 15.04 A 4.471 4.471 0 0 0 14.772 16.588 Q 15.32 17.588 16.4 18.6 Q 18.26 20.344 20.946 22.012 A 40.431 40.431 0 0 0 21.12 22.12 Q 23.92 23.84 27.32 25.52 Q 30.72 27.2 34 28.72 Q 37.283 30.265 39.841 31.629 A 84.542 84.542 0 0 1 41.04 32.28 A 24.998 24.998 0 0 1 43.586 33.888 Q 44.9 34.839 45.92 35.88 Q 47.84 37.84 48.8 40.32 Q 49.632 42.468 49.743 45.397 A 24.325 24.325 0 0 1 49.76 46.32 A 21.661 21.661 0 0 1 48.896 52.492 A 20.002 20.002 0 0 1 48.4 53.96 Q 47.04 57.52 44.44 60.16 A 18.042 18.042 0 0 1 38.841 63.992 A 20.857 20.857 0 0 1 38.16 64.28 A 20.378 20.378 0 0 1 32.951 65.585 A 25.539 25.539 0 0 1 29.92 65.76 A 34.061 34.061 0 0 1 24.662 65.331 A 44.917 44.917 0 0 1 20.24 64.4 Q 15.04 63.04 10.52 60.68 A 33.375 33.375 0 0 1 6.263 58.055 A 25.766 25.766 0 0 1 3 55.24 Q 0 52.16 0 48.72 A 7.371 7.371 0 0 1 0.107 47.523 Q 0.308 46.312 0.882 44.743 A 24.795 24.795 0 0 1 0.92 44.64 A 13.03 13.03 0 0 1 2.005 42.429 Q 2.612 41.428 3.441 40.39 A 25.423 25.423 0 0 1 4.24 39.44 A 7.45 7.45 0 0 0 4.671 41.236 Q 5.31 42.993 6.84 45.12 A 17.754 17.754 0 0 0 9.357 47.898 Q 10.669 49.085 12.334 50.201 A 34.186 34.186 0 0 0 13.92 51.2 Q 18.32 53.76 23 54.92 A 41.152 41.152 0 0 0 27.803 55.825 A 31.989 31.989 0 0 0 31.76 56.08 Q 34.931 56.08 37.26 55.519 A 12.971 12.971 0 0 0 39.04 54.96 Q 41.307 54.053 42.787 52.858 A 9.325 9.325 0 0 0 43.44 52.28 A 11.959 11.959 0 0 0 44.582 51.006 Q 45.143 50.275 45.498 49.535 A 6.807 6.807 0 0 0 45.68 49.12 A 16.972 16.972 0 0 0 46.011 48.226 Q 46.344 47.235 46.4 46.56 Q 46.324 45.042 45.059 43.631 A 7.729 7.729 0 0 0 44.92 43.48 Q 43.729 42.221 41.844 41.02 A 25.276 25.276 0 0 0 41.16 40.6 Q 38.876 39.245 35.88 37.853 A 82.893 82.893 0 0 0 35.68 37.76 Q 32.56 36.32 29.2 34.88 Q 24.16 32.64 20.52 30.68 A 42.581 42.581 0 0 1 17.677 29.012 Q 16.332 28.148 15.229 27.268 A 23.107 23.107 0 0 1 14.52 26.68 A 16.567 16.567 0 0 1 12.7 24.857 Q 11.688 23.66 11.08 22.4 A 10.822 10.822 0 0 1 10.116 19.101 A 13.836 13.836 0 0 1 10 17.28 Q 10 12.8 12.72 8.8 A 15.914 15.914 0 0 1 18.08 3.92 A 20.611 20.611 0 0 1 20.56 2.72 A 22.735 22.735 0 0 1 25.676 1.182 A 25.186 25.186 0 0 1 26.04 1.12 Q 28.96 0.64 31.76 0.64 Q 37.04 0.64 42.08 2.08 Q 47.12 3.52 52.16 5.76 Z M 293.2 83.52 Q 293.2 83.04 293.52 82.64 A 9.364 9.364 0 0 1 294.033 82.053 A 10.872 10.872 0 0 1 294.24 81.84 A 26.398 26.398 0 0 0 294.867 82.398 Q 295.434 82.885 295.88 83.2 Q 296.56 83.68 297.16 84 Q 297.76 84.32 298.4 84.4 A 9.248 9.248 0 0 0 298.914 84.449 Q 299.199 84.468 299.521 84.476 A 17.562 17.562 0 0 0 299.92 84.48 Q 304.08 84.48 307.84 82.28 A 22.749 22.749 0 0 0 311.876 79.236 A 30.996 30.996 0 0 0 314.92 75.92 Q 318.136 71.89 320.789 66.133 A 65.777 65.777 0 0 0 320.96 65.76 A 80.978 80.978 0 0 0 323.744 58.719 A 105.968 105.968 0 0 0 325.76 52.16 Q 325.025 52.895 324.032 53.747 A 47.6 47.6 0 0 1 323.4 54.28 Q 322 55.44 320.48 56.48 Q 318.96 57.52 317.48 58.4 A 26.042 26.042 0 0 1 316.514 58.948 Q 316.078 59.183 315.69 59.366 A 10.972 10.972 0 0 1 314.96 59.68 A 5.506 5.506 0 0 1 312.659 58.687 A 6.51 6.51 0 0 1 312.44 58.52 A 9.129 9.129 0 0 1 310.747 56.745 A 10.663 10.663 0 0 1 310.4 56.24 A 10.769 10.769 0 0 1 309.278 53.921 A 12.658 12.658 0 0 1 309.04 53.16 Q 308.56 51.44 308.56 49.52 A 18.322 18.322 0 0 1 309.199 44.801 A 21.965 21.965 0 0 1 309.72 43.12 A 34.432 34.432 0 0 1 312.563 37.075 A 38.132 38.132 0 0 1 312.8 36.68 Q 314.72 33.52 317.32 30.72 A 36.634 36.634 0 0 1 322.115 26.371 A 33.578 33.578 0 0 1 322.84 25.84 Q 325.76 23.76 328.76 22.52 Q 331.76 21.28 334.64 21.28 A 10.795 10.795 0 0 1 336.179 21.382 Q 336.965 21.496 337.599 21.735 A 4.32 4.32 0 0 1 338.84 22.44 A 4.609 4.609 0 0 1 339.818 23.596 Q 340.174 24.178 340.451 24.931 A 12.008 12.008 0 0 1 340.88 26.4 A 3.642 3.642 0 0 0 339.954 26.056 Q 339.531 25.958 339.037 25.931 A 7.119 7.119 0 0 0 338.64 25.92 Q 337.241 25.92 335.523 26.727 A 14.561 14.561 0 0 0 334.2 27.44 A 26.965 26.965 0 0 0 331.5 29.315 A 36.018 36.018 0 0 0 329.08 31.4 A 52.045 52.045 0 0 0 325.846 34.731 A 63.425 63.425 0 0 0 323.92 37 A 55.805 55.805 0 0 0 319.773 42.826 A 51.03 51.03 0 0 0 319.4 43.44 A 48.141 48.141 0 0 0 317.231 47.477 A 39.655 39.655 0 0 0 316.2 49.84 Q 315.196 52.366 315.005 54.472 A 10.708 10.708 0 0 0 314.96 55.44 A 6.225 6.225 0 0 0 314.963 55.635 Q 314.972 55.931 315.012 56.058 A 0.249 0.249 0 0 0 315.04 56.12 A 0.258 0.258 0 0 0 315.227 56.236 A 0.377 0.377 0 0 0 315.28 56.24 A 1.82 1.82 0 0 0 315.753 56.169 Q 316.368 56.003 317.24 55.44 Q 318.189 54.828 319.326 53.957 A 49.746 49.746 0 0 0 320.04 53.4 A 38.427 38.427 0 0 0 321.833 51.878 A 49.109 49.109 0 0 0 323.28 50.52 Q 324.96 48.88 326.48 47.2 A 54.5 54.5 0 0 0 331.995 39.848 A 61.219 61.219 0 0 0 332.76 38.6 A 63.487 63.487 0 0 0 335.588 33.334 A 50.894 50.894 0 0 0 337.28 29.36 Q 339.44 29.52 341.12 30.08 A 12.385 12.385 0 0 1 341.939 30.383 Q 342.728 30.71 343.189 31.062 A 2.515 2.515 0 0 1 343.44 31.28 Q 340.786 37.369 339.16 41.554 A 147.36 147.36 0 0 0 339.08 41.76 A 551.617 551.617 0 0 0 337.729 45.286 Q 337.119 46.898 336.586 48.339 A 311.578 311.578 0 0 0 336.24 49.28 Q 334.08 55.04 332.2 59.8 A 137.2 137.2 0 0 1 329.819 65.469 A 112.658 112.658 0 0 1 328.36 68.6 A 68.793 68.793 0 0 1 324.964 74.795 A 61.469 61.469 0 0 1 324.12 76.12 Q 321.84 79.6 318.96 82.8 Q 317.6 84.32 315.88 85.48 Q 314.16 86.64 312.36 87.44 A 20.724 20.724 0 0 1 309.977 88.334 A 17.624 17.624 0 0 1 308.84 88.64 Q 307.12 89.04 305.68 89.04 A 16.799 16.799 0 0 1 305.65 89.04 Q 303.893 89.037 302.07 88.666 A 20.133 20.133 0 0 1 301.76 88.6 Q 299.76 88.16 298.04 87.4 Q 296.32 86.64 295.04 85.64 Q 293.76 84.64 293.2 83.52 Z M 145.336 27.406 A 5.653 5.653 0 0 0 144.64 27.36 Q 143.76 29.2 142.76 31.16 Q 141.76 33.12 140.72 35.04 Q 139.68 36.96 138.68 38.72 Q 137.68 40.48 136.88 41.92 Q 133.843 47.039 131.438 50.279 A 38.968 38.968 0 0 1 129.52 52.68 A 25.976 25.976 0 0 1 128.606 53.675 Q 127.04 55.289 125.68 56.047 A 5.398 5.398 0 0 1 124.16 56.64 A 1.553 1.553 0 0 1 123.422 56.113 Q 123.04 55.608 123.04 54.72 A 15.53 15.53 0 0 1 123.043 54.428 Q 123.11 50.872 124.8 46.8 Q 126.56 42.56 129.32 38.84 A 36.361 36.361 0 0 1 130.023 37.923 A 32.036 32.036 0 0 1 135.48 32.48 A 21.9 21.9 0 0 1 136.353 31.835 Q 137.658 30.922 138.933 30.332 A 11.58 11.58 0 0 1 142.08 29.36 A 2.03 2.03 0 0 0 142.076 29.327 Q 142.014 28.841 141.702 28.231 A 7.089 7.089 0 0 0 141.36 27.64 Q 140.72 26.64 139.8 25.68 A 15.477 15.477 0 0 0 139.511 25.386 A 13.722 13.722 0 0 0 137.88 24 Q 136.88 23.28 136.08 23.04 A 8.603 8.603 0 0 0 134.38 23.299 Q 131.896 23.929 129.28 26.04 A 31.07 31.07 0 0 0 126.403 28.685 A 38.215 38.215 0 0 0 122.76 33.12 Q 119.76 37.36 117.84 42.32 Q 115.92 47.28 115.92 51.76 A 18.218 18.218 0 0 0 115.927 52.255 Q 115.97 53.855 116.298 55.226 A 10.007 10.007 0 0 0 117.76 58.6 Q 119.6 61.28 122.56 61.44 Q 124.4 61.12 126.6 59.56 Q 128.8 58 130.96 55.52 A 42.905 42.905 0 0 0 132.835 53.205 A 54.381 54.381 0 0 0 135.2 49.8 Q 137.28 46.56 138.88 42.88 Q 135.84 50.8 135.84 55.36 A 12.986 12.986 0 0 0 135.932 56.961 Q 136.298 59.897 138.12 60.837 A 4.397 4.397 0 0 0 140.16 61.28 Q 141.36 61.28 142.88 60.88 A 12.16 12.16 0 0 0 143.398 60.732 Q 143.949 60.56 144.415 60.353 A 6.348 6.348 0 0 0 145.36 59.84 A 3.221 3.221 0 0 1 144.21 58.712 A 4.548 4.548 0 0 1 143.76 57.72 Q 143.28 56.24 143.28 54 A 17.433 17.433 0 0 1 143.309 53.023 Q 143.402 51.363 143.8 49.28 A 48.024 48.024 0 0 1 144.339 46.823 A 61.506 61.506 0 0 1 145.28 43.44 A 75.898 75.898 0 0 1 146.056 41.061 A 90.228 90.228 0 0 1 147.6 36.92 Q 148.96 33.52 150.56 30.16 Q 150.56 29.854 150.208 29.501 A 2.962 2.962 0 0 0 149.96 29.28 A 5.961 5.961 0 0 0 149.83 29.179 Q 149.267 28.754 148.48 28.36 Q 147.6 27.92 146.52 27.64 A 11.181 11.181 0 0 0 146.053 27.529 Q 145.675 27.448 145.336 27.406 Z M 266.16 61.76 A 10.297 10.297 0 0 0 266.156 61.463 Q 266.067 58.4 264.16 55.12 A 844.92 844.92 0 0 1 263.928 55.141 Q 262.307 55.288 261 55.4 Q 259.6 55.52 258.28 55.72 Q 256.96 55.92 255.6 56.2 Q 254.24 56.48 252.64 56.88 A 100.957 100.957 0 0 1 251.541 57.16 Q 250.388 57.448 249.48 57.64 Q 248.16 57.92 247.04 58.12 Q 245.92 58.32 244.88 58.4 Q 243.84 58.48 242.56 58.56 Q 242.56 57.36 243.36 54.96 A 81.752 81.752 0 0 1 243.911 53.366 Q 244.573 51.51 245.48 49.2 Q 246.145 47.507 246.902 45.611 A 1012.362 1012.362 0 0 1 248.48 41.68 Q 250.16 37.52 251.92 32.8 Q 253.76 28 255.44 23.8 A 607.274 607.274 0 0 1 255.548 23.53 Q 256.356 21.514 257.098 19.703 A 370.064 370.064 0 0 1 258.52 16.28 Q 259.92 12.96 260.96 10.64 Q 262 8.32 262.64 7.28 Q 261.476 5.555 260.253 4.26 A 15.528 15.528 0 0 0 258.12 2.36 A 12.786 12.786 0 0 0 256.043 1.131 A 15.025 15.025 0 0 0 252.56 0 A 590.413 590.413 0 0 1 252.293 1.217 Q 251.488 4.873 250.8 7.76 Q 250 11.12 249.16 14.2 Q 248.32 17.28 247.28 20.56 A 378.314 378.314 0 0 1 246.98 21.503 Q 246.517 22.949 245.983 24.579 A 694.539 694.539 0 0 1 244.8 28.16 A 383.017 383.017 0 0 1 244.176 29.974 Q 243.247 32.649 242.369 35.046 A 224.539 224.539 0 0 1 240.6 39.72 Q 238.64 44.72 237.04 48.44 A 379.347 379.347 0 0 1 236.079 50.656 Q 235.618 51.709 235.196 52.653 A 193.05 193.05 0 0 1 234.24 54.76 Q 233.04 57.36 232.24 59.12 A 28.699 28.699 0 0 0 233.58 61.14 A 22.504 22.504 0 0 0 235.68 63.64 A 14.78 14.78 0 0 0 236.238 64.182 Q 237.799 65.617 239.36 66.16 A 340.84 340.84 0 0 1 241.716 65.783 Q 242.848 65.607 243.885 65.454 A 195.278 195.278 0 0 1 246.24 65.12 Q 249.2 64.72 251.6 64.48 Q 254 64.24 255.96 64.12 Q 257.92 64 259.84 64 Q 261.44 64 262.92 64.08 Q 264.4 64.16 265.76 64.32 Q 265.92 63.68 266.04 63.08 Q 266.16 62.48 266.16 61.76 Z M 196.16 29.04 L 191.6 29.04 A 1.661 1.661 0 0 1 191.399 28.721 Q 191.118 28.158 190.88 27 Q 190.635 25.806 190.578 24.869 A 8.985 8.985 0 0 1 190.56 24.32 Q 192.64 24.48 194.56 24.6 Q 196.48 24.72 198.08 24.8 Q 199.28 22.4 200.68 20.04 Q 202.08 17.68 203.4 15.72 Q 204.462 14.143 205.421 12.954 A 26.141 26.141 0 0 1 205.88 12.4 Q 207.038 11.043 207.677 10.642 A 2.052 2.052 0 0 1 207.68 10.64 A 6.013 6.013 0 0 1 208.282 10.673 Q 208.594 10.705 208.954 10.766 A 15.071 15.071 0 0 1 209.72 10.92 Q 210.96 11.2 212.24 11.64 Q 213.52 12.08 214.56 12.56 Q 215.475 12.982 215.895 13.405 A 1.789 1.789 0 0 1 216 13.52 A 98.92 98.92 0 0 0 213.802 16.406 Q 212.786 17.795 211.935 19.077 A 60.287 60.287 0 0 0 211.88 19.16 Q 210.215 21.676 208.289 24.904 A 204.218 204.218 0 0 0 208.16 25.12 Q 209.76 25.12 211.4 25.04 Q 213.04 24.96 214.72 24.8 A 2.752 2.752 0 0 1 215.194 25.445 A 3.433 3.433 0 0 1 215.36 25.8 Q 215.6 26.4 215.6 27.04 Q 211.68 28.48 206.08 28.64 Q 204.08 32.48 202.52 36.28 A 89.369 89.369 0 0 0 200.602 41.373 A 75.801 75.801 0 0 0 199.88 43.6 A 69.823 69.823 0 0 0 198.767 47.639 A 55.927 55.927 0 0 0 198.2 50.24 A 36.884 36.884 0 0 0 197.79 52.848 Q 197.636 54.145 197.607 55.31 A 21.355 21.355 0 0 0 197.6 55.84 A 6.999 6.999 0 0 0 197.726 57.231 Q 198.168 59.402 200.156 59.746 A 4.019 4.019 0 0 0 200.24 59.76 Q 202.64 59.44 204.8 58.56 A 15.509 15.509 0 0 0 207.882 56.892 A 14.019 14.019 0 0 0 208.64 56.32 A 6.067 6.067 0 0 1 208.878 56.706 Q 209.143 57.175 209.2 57.52 Q 208.72 58.24 207.56 59.2 Q 206.4 60.16 205.04 61.08 A 25.434 25.434 0 0 1 203.412 62.097 A 20.686 20.686 0 0 1 202.4 62.64 Q 201.12 63.28 200.48 63.36 A 11.833 11.833 0 0 1 196.98 62.669 A 13.57 13.57 0 0 1 196.48 62.48 A 16.614 16.614 0 0 1 193.059 60.638 A 15.47 15.47 0 0 1 192.84 60.48 A 12.446 12.446 0 0 1 191.044 58.892 A 10.496 10.496 0 0 1 190.16 57.8 A 6.496 6.496 0 0 1 189.506 56.65 Q 189.12 55.758 189.12 54.88 A 18.362 18.362 0 0 1 189.181 53.442 Q 189.24 52.699 189.355 51.849 A 43.467 43.467 0 0 1 189.64 50.04 Q 190.16 47.12 191.12 43.68 A 128.426 128.426 0 0 1 192.591 38.799 A 150.477 150.477 0 0 1 193.36 36.48 Q 194.64 32.72 196.16 29.04 Z M 153.029 56.485 A 43.775 43.775 0 0 0 152.72 58.08 A 2.363 2.363 0 0 0 152.961 58.544 Q 153.107 58.766 153.315 58.998 A 5.966 5.966 0 0 0 153.76 59.44 A 12.454 12.454 0 0 0 154.226 59.839 A 14.402 14.402 0 0 0 155.56 60.8 A 16.308 16.308 0 0 0 155.943 61.038 A 14.345 14.345 0 0 0 157.56 61.88 Q 158.185 62.155 158.701 62.29 A 4.106 4.106 0 0 0 159.28 62.4 A 132.208 132.208 0 0 1 159.849 59.896 Q 160.329 57.879 160.827 56.094 A 72.133 72.133 0 0 1 161.8 52.88 A 39.149 39.149 0 0 1 162.965 49.782 A 30.942 30.942 0 0 1 165 45.8 Q 166.88 42.72 169.52 40.2 A 39.757 39.757 0 0 1 169.876 39.865 Q 172.41 37.505 175.92 35.04 Q 176.72 37.36 178.4 39.32 A 14.501 14.501 0 0 0 178.559 39.502 A 12.732 12.732 0 0 0 182.24 42.4 Q 183.44 41.2 184.44 39.84 Q 185.221 38.778 185.441 38.252 A 1.178 1.178 0 0 0 185.52 38 A 4.969 4.969 0 0 1 185.352 37.69 Q 184.48 35.943 184.48 32.72 Q 184.48 28.96 185.92 25.12 Q 185.645 24.68 185.068 24.372 A 4.106 4.106 0 0 0 184.48 24.12 Q 183.44 23.76 182.32 23.76 A 6.351 6.351 0 0 0 182.004 23.768 Q 181.054 23.815 180.64 24.16 Q 177.76 28.48 174.44 32 Q 171.12 35.52 166.8 39.36 A 95.461 95.461 0 0 1 167.651 36.879 Q 168.896 33.407 170.12 30.96 A 32.96 32.96 0 0 1 170.862 29.559 A 28.507 28.507 0 0 1 173.92 25.12 Q 173.618 24.768 173.158 24.4 A 9.765 9.765 0 0 0 172.56 23.96 Q 171.68 23.36 170.56 22.8 Q 169.44 22.24 168.24 21.84 Q 167.04 21.44 165.92 21.28 Q 164.96 22.24 164.16 23.64 A 16.605 16.605 0 0 0 164.086 23.77 Q 163.566 24.7 162.947 26.075 A 60.501 60.501 0 0 0 162.32 27.52 Q 160.88 30.96 159.36 35.28 Q 157.84 39.6 156.48 43.88 Q 155.12 48.16 154.12 51.96 A 147.587 147.587 0 0 0 154.03 52.304 Q 153.406 54.7 153.029 56.485 Z M 279.314 61.181 A 10.719 10.719 0 0 0 283.52 62.48 Q 288.32 61.44 292.36 58.92 Q 296.4 56.4 299.32 52.72 Q 302.24 49.04 303.88 44.52 Q 305.52 40 305.52 34.96 Q 305.52 27.44 301.28 27.44 Q 300.88 27.44 300.56 27.48 A 3.892 3.892 0 0 1 300.555 27.481 Q 300.395 27.5 300.214 27.51 A 6.88 6.88 0 0 1 299.84 27.52 Q 298.213 24.685 296.551 23.125 A 8.217 8.217 0 0 0 294.8 21.84 Q 290.96 21.84 286.56 25.12 A 28.004 28.004 0 0 0 285.524 25.928 A 30.911 30.911 0 0 0 281.36 30.08 Q 278.96 32.96 277.2 36.2 Q 275.44 39.44 274.48 42.88 A 28.033 28.033 0 0 0 274.016 44.796 A 23.54 23.54 0 0 0 273.52 49.52 A 18.089 18.089 0 0 0 273.887 53.256 A 12.697 12.697 0 0 0 276.24 58.48 A 10.258 10.258 0 0 0 279.314 61.181 Z M 350.594 61.181 A 10.719 10.719 0 0 0 354.8 62.48 Q 359.6 61.44 363.64 58.92 Q 367.68 56.4 370.6 52.72 Q 373.52 49.04 375.16 44.52 Q 376.8 40 376.8 34.96 Q 376.8 27.44 372.56 27.44 Q 372.16 27.44 371.84 27.48 A 3.892 3.892 0 0 1 371.835 27.481 Q 371.675 27.5 371.494 27.51 A 6.88 6.88 0 0 1 371.12 27.52 Q 369.493 24.685 367.831 23.125 A 8.217 8.217 0 0 0 366.08 21.84 Q 362.24 21.84 357.84 25.12 A 28.004 28.004 0 0 0 356.804 25.928 A 30.911 30.911 0 0 0 352.64 30.08 Q 350.24 32.96 348.48 36.2 Q 346.72 39.44 345.76 42.88 A 28.033 28.033 0 0 0 345.296 44.796 A 23.54 23.54 0 0 0 344.8 49.52 A 18.089 18.089 0 0 0 345.167 53.256 A 12.697 12.697 0 0 0 347.52 58.48 A 10.258 10.258 0 0 0 350.594 61.181 Z M 287.6 37.28 Q 286.24 39.12 285.04 41.28 Q 283.84 43.44 282.96 45.64 A 32.018 32.018 0 0 0 282.016 48.327 A 26.635 26.635 0 0 0 281.6 49.88 A 20.257 20.257 0 0 0 281.276 51.552 Q 281.154 52.377 281.127 53.114 A 11.231 11.231 0 0 0 281.12 53.52 Q 281.12 55.44 281.76 57.2 A 8.16 8.16 0 0 0 282.048 57.897 Q 282.575 59.013 283.2 59.2 Q 286.8 58.4 289.8 56.2 Q 292.8 54 295 50.72 A 26.36 26.36 0 0 0 297.852 45.058 A 30.856 30.856 0 0 0 298.44 43.28 A 30.19 30.19 0 0 0 299.636 36.15 A 34.784 34.784 0 0 0 299.68 34.4 A 29.349 29.349 0 0 0 299.657 33.186 Q 299.61 32.076 299.474 31.299 A 7.89 7.89 0 0 0 299.44 31.12 A 6.838 6.838 0 0 0 299.107 29.968 A 5.361 5.361 0 0 0 298.64 29.04 Q 295.12 30.08 292.36 32.4 A 34.372 34.372 0 0 0 288.924 35.703 A 29.484 29.484 0 0 0 287.6 37.28 Z M 358.88 37.28 Q 357.52 39.12 356.32 41.28 Q 355.12 43.44 354.24 45.64 A 32.018 32.018 0 0 0 353.296 48.327 A 26.635 26.635 0 0 0 352.88 49.88 A 20.257 20.257 0 0 0 352.556 51.552 Q 352.434 52.377 352.407 53.114 A 11.231 11.231 0 0 0 352.4 53.52 Q 352.4 55.44 353.04 57.2 A 8.16 8.16 0 0 0 353.328 57.897 Q 353.855 59.013 354.48 59.2 Q 358.08 58.4 361.08 56.2 Q 364.08 54 366.28 50.72 A 26.36 26.36 0 0 0 369.132 45.058 A 30.856 30.856 0 0 0 369.72 43.28 A 30.19 30.19 0 0 0 370.916 36.15 A 34.784 34.784 0 0 0 370.96 34.4 A 29.349 29.349 0 0 0 370.937 33.186 Q 370.89 32.076 370.754 31.299 A 7.89 7.89 0 0 0 370.72 31.12 A 6.838 6.838 0 0 0 370.387 29.968 A 5.361 5.361 0 0 0 369.92 29.04 Q 366.4 30.08 363.64 32.4 A 34.372 34.372 0 0 0 360.204 35.703 A 29.484 29.484 0 0 0 358.88 37.28 Z" vector-effect="non-scaling-stroke"/></g></svg>